# xmcd
#
# Track frame offsets: 
#        150
#        16301
#        30861
#        49096
#        67771
#        89596
#        105327
#        124343
#        141874
#        162760
#        178969
#        194987
#        214234
#
# Disc length: 3063 seconds
#
# Revision: 0
# Processed by: cddbd v1.5.2PL0 Copyright (c) Steve Scherf et al.
# Submitted via: ExactAudioCopyFreeDBPlugin 1.0
#
DISCID=b60bf50d
DTITLE=Yuna - Chapters [deluxe edition]
DYEAR=2016
DGENRE=R&B
TTITLE0=Mannequin
TTITLE1=Lanes
TTITLE2=Yuna feat Usher - Crush
TTITLE3=Unrequited Love
TTITLE4=Best Love
TTITLE5=Yuna feat Jhené Aiko - Used to Love You
TTITLE6=Too Close
TTITLE7=Best of Me
TTITLE8=Your Love
TTITLE9=All I Do
TTITLE10=Places to Go
TTITLE11=Poor Heart
TTITLE12=Time
EXTD=
EXTT0=
EXTT1=
EXTT2=
EXTT3=
EXTT4=
EXTT5=
EXTT6=
EXTT7=
EXTT8=
EXTT9=
EXTT10=
EXTT11=
EXTT12=
PLAYORDER=
